<svg xmlns="http://www.w3.org/2000/svg" width="1024" height="1024" style="width:100%;height:100%;transform:translate3d(0,0,0)"><defs><radialGradient id="k" spreadMethod="pad" gradientUnits="userSpaceOnUse" cx="17.5" cy="-13.75" r="64.353" fx="17.5" fy="-13.75"><stop offset="0%" stop-color="#FFEF92"/><stop offset="12%" stop-color="#FFE479"/><stop offset="23%" stop-color="#FFD85F"/><stop offset="48%" stop-color="#E8BD3D"/><stop offset="72%" stop-color="#D1A31B"/><stop offset="86%" stop-color="#E8680E"/><stop offset="100%" stop-color="#FF2E00"/></radialGradient><radialGradient id="s" spreadMethod="pad" gradientUnits="userSpaceOnUse" cx="157" cy="-250" r="550.596" fx="157" fy="-250"><stop offset="94%" stop-color="#FFC85B"/><stop offset="97%" stop-color="#F49C58"/><stop offset="100%" stop-color="#E97056"/></radialGradient><radialGradient id="a" spreadMethod="pad" gradientUnits="userSpaceOnUse" cx="157" cy="-250" r="632.514" fx="157" fy="-250"><stop stop-color="#FFF" offset="0%"/><stop stop-color="#FFF" offset="44%"/><stop stop-color="#FFF" offset="89%"/><stop stop-color="#FFF" offset="90%" stop-opacity=".5"/><stop stop-color="#FFF" offset="92%" stop-opacity="0"/></radialGradient><radialGradient id="e" spreadMethod="pad" gradientUnits="userSpaceOnUse" cx="-334.5" cy="-78" r="264.773" fx="-334.5" fy="-78"><stop offset="0%" stop-color="#FFAC26"/><stop offset="50%" stop-color="#FDA02C" stop-opacity=".5"/><stop offset="100%" stop-color="#FB9432" stop-opacity="0"/></radialGradient><radialGradient id="f" spreadMethod="pad" gradientUnits="userSpaceOnUse" cx="-36.5" cy="-38" r="201.64" fx="-36.5" fy="-38"><stop offset="0%" stop-color="#FFC86F"/><stop offset="50%" stop-color="#FDAE51" stop-opacity=".5"/><stop offset="100%" stop-color="#FB9432" stop-opacity="0"/></radialGradient><radialGradient id="g" spreadMethod="pad" gradientUnits="userSpaceOnUse" cx="157" cy="-250" r="550.596" fx="157" fy="-250"><stop offset="94%" stop-color="#FFC85B"/><stop offset="97%" stop-color="#F49C58"/><stop offset="100%" stop-color="#E97056"/></radialGradient><radialGradient id="h" spreadMethod="pad" gradientUnits="userSpaceOnUse" cx="17.5" cy="-13.75" r="64.353" fx="17.5" fy="-13.75"><stop offset="0%" stop-color="#F959B8"/><stop offset="12%" stop-color="#FC46AA"/><stop offset="23%" stop-color="#FE329C"/><stop offset="54%" stop-color="#E8277C"/><stop offset="85%" stop-color="#D11B5D"/><stop offset="92%" stop-color="#9E2657"/><stop offset="100%" stop-color="#6C3052"/></radialGradient><radialGradient id="i" spreadMethod="pad" gradientUnits="userSpaceOnUse" cx="17.5" cy="-13.75" r="61.891" fx="17.5" fy="-13.75"><stop offset="0%" stop-color="#85D2F9"/><stop offset="12%" stop-color="#66C5FC"/><stop offset="23%" stop-color="#47B9FF"/><stop offset="54%" stop-color="#399AE8"/><stop offset="85%" stop-color="#2A7AD0"/><stop offset="92%" stop-color="#2D629E"/><stop offset="100%" stop-color="#304A6C"/></radialGradient><radialGradient id="j" spreadMethod="pad" gradientUnits="userSpaceOnUse" cx="17.5" cy="-13.75" r="64.353" fx="17.5" fy="-13.75"><stop offset="0%" stop-color="#F959B8"/><stop offset="12%" stop-color="#FC46AA"/><stop offset="23%" stop-color="#FE329C"/><stop offset="54%" stop-color="#E8277C"/><stop offset="85%" stop-color="#D11B5D"/><stop offset="92%" stop-color="#9E2657"/><stop offset="100%" stop-color="#6C3052"/></radialGradient><radialGradient id="o" spreadMethod="pad" gradientUnits="userSpaceOnUse" cx="157" cy="-250" r="632.514" fx="157" fy="-250"><stop offset="82%" stop-color="#F7A859"/><stop offset="85%" stop-color="#F08C57"/><stop offset="88%" stop-color="#E97056"/></radialGradient><radialGradient id="l" spreadMethod="pad" gradientUnits="userSpaceOnUse" cx="17.5" cy="-13.75" r="64.353" fx="17.5" fy="-13.75"><stop offset="0%" stop-color="#FDDF86"/><stop offset="12%" stop-color="#FED772"/><stop offset="23%" stop-color="#FFCF5F"/><stop offset="54%" stop-color="#FBA161"/><stop offset="85%" stop-color="#F77463"/><stop offset="92%" stop-color="#DE7254"/><stop offset="100%" stop-color="#C47146"/></radialGradient><linearGradient id="n" spreadMethod="pad" gradientUnits="userSpaceOnUse" x1="-322" y1="-99" x2="96" y2="270"><stop offset="0%" stop-color="#AF8057"/><stop offset="10%" stop-color="#C3794E"/><stop offset="20%" stop-color="#D67244"/><stop offset="34%" stop-color="#E06D4F"/><stop offset="49%" stop-color="#EA6859"/><stop offset="63%" stop-color="#F36866"/><stop offset="76%" stop-color="#FB6773"/><stop offset="88%" stop-color="#FB6F91"/><stop offset="100%" stop-color="#FC77AE"/></linearGradient><linearGradient id="d" spreadMethod="pad" gradientUnits="userSpaceOnUse" x1="-322" y1="-99" x2="96" y2="270"><stop offset="0%" stop-color="#EF8E2E"/><stop offset="25%" stop-color="#EF953C"/><stop offset="49%" stop-color="#EF9C4A"/><stop offset="75%" stop-color="#D48638"/><stop offset="100%" stop-color="#B97025"/></linearGradient><linearGradient id="q" spreadMethod="pad" gradientUnits="userSpaceOnUse" x1="-438" y1="241" x2="-209" y2="432"><stop offset="0%" stop-color="#517AAB"/><stop offset="7%" stop-color="#3F72BA"/><stop offset="14%" stop-color="#2E6ACA"/><stop offset="32%" stop-color="#3068E4"/><stop offset="51%" stop-color="#3265FF"/><stop offset="68%" stop-color="#3E64FF"/><stop offset="86%" stop-color="#4A63FF"/><stop offset="93%" stop-color="#636CFF"/><stop offset="100%" stop-color="#7D76FF"/></linearGradient><linearGradient id="r" spreadMethod="pad" gradientUnits="userSpaceOnUse" x1="-382.5" y1="85.5" x2="-64.5" y2="350.5"><stop offset="0%" stop-color="#517AAB"/><stop offset="7%" stop-color="#3F72BA"/><stop offset="14%" stop-color="#2E6ACA"/><stop offset="32%" stop-color="#3068E4"/><stop offset="51%" stop-color="#3265FF"/><stop offset="68%" stop-color="#3E64FF"/><stop offset="86%" stop-color="#4A63FF"/><stop offset="93%" stop-color="#636CFF"/><stop offset="100%" stop-color="#7D76FF"/></linearGradient><clipPath id="c"><path fill="#fff" d="M-278.25-120c-74.5-5.25-75.25 60.75-75.25 60.75s-70 411-69.5 420.25-.805 34.562 25.25 61.75c28.75 30 66.873 28.444 93.125 19.125C-275.75 431.625-1.325 321.557 63 296.5c64.5-25.125 68.375-44.125 56.5-101.5C108.07 139.777 25 46-48-11.5S-203.914-114.762-278.25-120"/></clipPath><clipPath id="b"><path d="M0 0h1024v1024H0z"/></clipPath><mask id="m"><path fill="#fff" d="M-278.25-120c-74.5-5.25-75.25 60.75-75.25 60.75s-70 411-69.5 420.25-.805 34.562 25.25 61.75c28.75 30 66.873 28.444 93.125 19.125C-275.75 431.625-1.325 321.557 63 296.5c64.5-25.125 68.375-44.125 56.5-101.5C108.07 139.777 25 46-48-11.5S-203.914-114.762-278.25-120"/><path d="M-283-98.5C-374.889-67.619-239 74-171 136S40.5 281 90.5 242.5c67.346-51.856 99.119-175.417-70.5-317-121-101-242-44.5-303-24"/></mask><mask id="p"><path fill="url(#a)" d="M-283-129.582c-76.885-5.418-77.659 62.694-77.659 62.694s-72.24 424.156-71.724 433.702c.516 9.546-.831 35.668 26.058 63.726 29.67 30.96 69.014 29.354 96.106 19.737C-280.42 439.699 2.788 326.108 69.172 300.249c66.564-25.929 72.112-41.926 59.857-101.137C117.233 142.121 29.957 41.731-45.38-17.609-120.717-76.949-206.285-124.176-283-129.582z"/></mask></defs><g clip-path="url(#b)"><g clip-path="url(#c)" transform="translate(512 512)" style="display:block"><path fill="url(#d)" d="M-294.77-109.31c-101.774 34.203 40.234 186.557 115.549 255.227 75.315 68.67 225.252 157.098 280.631 114.456C176 202.938-12.531 25.191-51.296-5.267-90.061-35.725-227.208-132.015-294.77-109.31z"/><path fill="url(#e)" d="M-294.77-109.31c-101.774 34.203 40.234 186.557 115.549 255.227 75.315 68.67 225.252 157.098 280.631 114.456C176 202.938-12.531 25.191-51.296-5.267-90.061-35.725-227.208-132.015-294.77-109.31z"/><path fill="url(#f)" d="M-294.77-109.31c-101.774 34.203 40.234 186.557 115.549 255.227 75.315 68.67 225.252 157.098 280.631 114.456C176 202.938-12.531 25.191-51.296-5.267-90.061-35.725-227.208-132.015-294.77-109.31z"/><g><path fill="url(#g)" d="M-309.449-133.541C-235.182-158.5-76.58-51.707-33.967-18.226 8.646 15.255 210.28 211.491 128.287 274.626 67.412 321.5-121.299 228.447-204.089 152.962c-82.79-75.485-217.235-248.906-105.36-286.503zM-283.5-99c-91.889 30.881 44 172.5 112 234.5S40 280.5 90 242C157.346 190.144-21 26.5-56-1s-166.5-118.5-227.5-98z"/></g></g><path fill="url(#h)" d="M0-38c20.972 0 38 17.028 38 38S20.972 38 0 38-38 20.972-38 0s17.028-38 38-38z" transform="translate(761.125 225.75)" style="display:block"/><path fill="url(#i)" d="M0-38c20.972 0 38 17.028 38 38S20.972 38 0 38-38 20.972-38 0s17.028-38 38-38z" transform="translate(483.375 513.5)" style="display:block"/><path fill="url(#j)" d="M0-38c20.972 0 38 17.028 38 38S20.972 38 0 38-38 20.972-38 0s17.028-38 38-38z" transform="translate(162.125 261.75)" style="display:block"/><path fill="url(#k)" d="M0-38c20.972 0 38 17.028 38 38S20.972 38 0 38-38 20.972-38 0s17.028-38 38-38z" transform="translate(325.125 110.25)" style="display:block"/><path stroke-linecap="round" stroke-linejoin="round" stroke="#DF267D" stroke-width="73" d="M655.68-42.946C691.616-80.692 727.053-110.502 758-123c72-29.077 116.78-20.342 146.079-4.878" fill="none" transform="translate(2 512)" style="display:block"/><path stroke-linecap="round" stroke-linejoin="round" stroke="#3092FB" stroke-width="76" d="M390 244.5c26-56.5 163.214-256.226 408.5-207 37.819 7.59 67.651 16.577 90.902 26.598" fill="none" transform="translate(2 512)" style="display:block"/><path stroke-linecap="round" stroke-linejoin="round" stroke="#3092FB" stroke-width="51" d="M559.979-122.957A399.025 399.025 0 0 0 564-157c12-159-145-133-130-49 12.658 70.886 119 77 180-90 14.905-40.805 15.508-72.538 8.048-95.755" fill="none" transform="translate(2 512)" style="display:block"/><path stroke-linecap="round" stroke-linejoin="round" stroke="#E22474" stroke-width="73" d="M240 103.5C292 43 338.586-3.954 341-115c1.2-55.186-12.153-112.771-35.134-162.458" fill="none" transform="translate(2 512)" style="display:block"/><path fill="url(#l)" d="M0-38c20.972 0 38 17.028 38 38S20.972 38 0 38-38 20.972-38 0s17.028-38 38-38z" transform="translate(800.875 733.5)" style="display:block"/><g mask="url(#m)" transform="translate(512 512)" style="display:block"><path fill="url(#n)" d="M-283-129.582c-76.885-5.418-77.659 62.694-77.659 62.694s-72.24 424.156-71.724 433.702c.516 9.546-.831 35.668 26.058 63.726 29.67 30.96 69.014 29.354 96.106 19.737C-280.42 439.699 2.788 326.108 69.172 300.249c66.564-25.929 72.112-41.926 59.857-101.137C117.233 142.121 29.957 41.731-45.38-17.609-120.717-76.949-206.285-124.176-283-129.582z"/><path fill="url(#o)" mask="url(#p)" d="M-283-129.582c-76.885-5.418-77.659 62.694-77.659 62.694s-72.24 424.156-71.724 433.702c.516 9.546-.831 35.668 26.058 63.726 29.67 30.96 69.014 29.354 96.106 19.737C-280.42 439.699 2.788 326.108 69.172 300.249c66.564-25.929 72.112-41.926 59.857-101.137C117.233 142.121 29.957 41.731-45.38-17.609-120.717-76.949-206.285-124.176-283-129.582z"/><path fill="url(#q)" d="M-402.5 169.75S-418 249-417.5 273s5.194 47.621 59.5 97.75c32.5 30 72.75 54 114 52.5 35.235-1.281 127.75-40.25 95-35.75s-79 5.5-168.75-70c-98.714-83.041-84.75-147.75-84.75-147.75z"/><path fill="url(#r)" d="M-370.75-19.5c-5.5-45-11.211 96.562-13 120.5C-387 144.5-348.5 197.5-275 264.75c68.112 62.32 154.75 108.5 216.5 84.5 32.863-12.773 122.671-46.691 91.75-35C-37.5 341-145 287-234.75 211.5c-98.714-83.041-140.75-158.5-136-231z"/><g><path fill="url(#s)" d="M-309.449-133.541C-235.182-158.5-76.58-51.707-33.967-18.226 8.646 15.255 210.28 211.491 128.287 274.626 67.412 321.5-121.299 228.447-204.089 152.962c-82.79-75.485-217.235-248.906-105.36-286.503zM-283.5-99c-91.889 30.881 44 172.5 112 234.5S40 280.5 90 242C157.346 190.144-21 26.5-56-1s-166.5-118.5-227.5-98z"/></g></g></g></svg>