<svg xmlns="http://www.w3.org/2000/svg" width="1024" height="1024" style="width:100%;height:100%;transform:translate3d(0,0,0)"><defs><radialGradient id="k" spreadMethod="pad" gradientUnits="userSpaceOnUse" cx="-173" cy="-213" r="304.6" fx="-116.302" fy="-234.099"><stop offset="0%" stop-color="#FFD6DE"/><stop offset="12%" stop-color="#FFD6DE"/><stop offset="25%" stop-color="#FFD6DE"/><stop offset="62%" stop-color="#F67EA3"/><stop offset="100%" stop-color="#EC2668"/></radialGradient><radialGradient id="d" spreadMethod="pad" gradientUnits="userSpaceOnUse" cx="307" cy="-231" r="241.495" fx="307" fy="-231"><stop stop-color="#FFF" offset="0%"/><stop stop-color="#FFF" offset="50%" stop-opacity=".5"/><stop stop-color="#FFF" offset="100%" stop-opacity="0"/></radialGradient><radialGradient id="h" spreadMethod="pad" gradientUnits="userSpaceOnUse" cx="-920" cy="709" r="1005.604" fx="-920" fy="709"><stop offset="0%" stop-color="#320062"/><stop offset="50%" stop-color="#190031" stop-opacity=".5"/><stop offset="100%" stop-opacity="0"/></radialGradient><radialGradient id="i" spreadMethod="pad" gradientUnits="userSpaceOnUse" cx="-98" cy="-155" r="192.938" fx="-96.722" fy="-156.224"><stop offset="0%" stop-color="#FFD6DE"/><stop offset="29%" stop-color="#F67EA3"/><stop offset="57%" stop-color="#EC2668"/></radialGradient><radialGradient id="a" spreadMethod="pad" gradientUnits="userSpaceOnUse" cx="-98" cy="-155" r="192.938" fx="-96.722" fy="-156.224"><stop stop-color="#FFF" offset="0%"/><stop stop-color="#FFF" offset="50%" stop-opacity=".5"/><stop stop-color="#FFF" offset="100%" stop-opacity="0"/></radialGradient><radialGradient id="g" spreadMethod="pad" gradientUnits="userSpaceOnUse" cx="1083" cy="794" r="1176.841" fx="1083" fy="794"><stop offset="0%" stop-color="#320062"/><stop offset="50%" stop-color="#190031" stop-opacity=".5"/><stop offset="100%" stop-opacity="0"/></radialGradient><radialGradient id="f" spreadMethod="pad" gradientUnits="userSpaceOnUse" cx="51.153" cy="-120.903" r="652.113" fx="52.972" fy="-123.41"><stop offset="0%" stop-color="#F1265D"/><stop offset="25%" stop-color="#F1276D"/><stop offset="50%" stop-color="#F2287D"/><stop offset="75%" stop-color="#E73198"/><stop offset="100%" stop-color="#DB3AB4"/></radialGradient><radialGradient id="b" spreadMethod="pad" gradientUnits="userSpaceOnUse" cx="-173" cy="-213" r="304.6" fx="-116.302" fy="-234.099"><stop stop-color="#FFF" offset="12%"/><stop stop-color="#FFF" offset="56%" stop-opacity=".5"/><stop stop-color="#FFF" offset="100%" stop-opacity="0"/></radialGradient><radialGradient id="m" spreadMethod="pad" gradientUnits="userSpaceOnUse" cx="240" cy="-209" r="322.416" fx="210.228" fy="-152.836"><stop offset="11%" stop-color="#FFD6DE"/><stop offset="56%" stop-color="#FF95AE"/><stop offset="100%" stop-color="#FE557E"/></radialGradient><radialGradient id="c" spreadMethod="pad" gradientUnits="userSpaceOnUse" cx="240" cy="-209" r="322.416" fx="210.228" fy="-152.836"><stop stop-color="#FFF" offset="0%"/><stop stop-color="#FFF" offset="50%" stop-opacity=".5"/><stop stop-color="#FFF" offset="100%" stop-opacity="0"/></radialGradient><radialGradient id="p" spreadMethod="pad" gradientUnits="userSpaceOnUse" cx="307" cy="-231" r="241.495" fx="307" fy="-231"><stop offset="11%" stop-color="#FFD6DE"/><stop offset="56%" stop-color="#FF95AE"/><stop offset="100%" stop-color="#FE557E"/></radialGradient><mask id="n"><path fill="url(#c)" d="M-200.5-346.5c-94 0-215.5 62.5-215.5 210.5 0 262 341.5 515.5 417.5 515.5S418 112 418-134c0-137-101-212-218.75-212C58-346 31.5-247 .25-247-37-247-49.5-346.5-200.5-346.5z"/></mask><mask id="j"><path fill="url(#a)" d="M-200.5-346.5c-94 0-215.5 62.5-215.5 210.5 0 262 341.5 515.5 417.5 515.5S418 112 418-134c0-137-101-212-218.75-212C58-346 31.5-247 .25-247-37-247-49.5-346.5-200.5-346.5z"/></mask><mask id="q"><path fill="url(#d)" d="M-200.5-346.5c-94 0-215.5 62.5-215.5 210.5 0 262 341.5 515.5 417.5 515.5S418 112 418-134c0-137-101-212-218.75-212C58-346 31.5-247 .25-247-37-247-49.5-346.5-200.5-346.5z"/></mask><mask id="l"><path fill="url(#b)" d="M-200.5-346.5c-94 0-215.5 62.5-215.5 210.5 0 262 341.5 515.5 417.5 515.5S418 112 418-134c0-137-101-212-218.75-212C58-346 31.5-247 .25-247-37-247-49.5-346.5-200.5-346.5z"/></mask><linearGradient id="o" spreadMethod="pad" gradientUnits="userSpaceOnUse" x1="34" y1="-361" x2="24" y2="50"><stop offset="0%" stop-color="#F20430"/><stop offset="50%" stop-color="#E3173D" stop-opacity=".5"/><stop offset="100%" stop-color="#D32B4A" stop-opacity="0"/></linearGradient><clipPath id="e"><path d="M0 0h1024v1024H0z"/></clipPath></defs><g style="display:block" clip-path="url(#e)"><path fill="url(#f)" d="M-200.5-346.5c-94 0-215.5 62.5-215.5 210.5 0 262 341.5 515.5 417.5 515.5S418 112 418-134c0-137-101-212-218.75-212C58-346 31.5-247 .25-247-37-247-49.5-346.5-200.5-346.5z" transform="translate(512 512)"/><path fill="url(#g)" d="M-200.5-346.5c-94 0-215.5 62.5-215.5 210.5 0 262 341.5 515.5 417.5 515.5S418 112 418-134c0-137-101-212-218.75-212C58-346 31.5-247 .25-247-37-247-49.5-346.5-200.5-346.5z" transform="translate(512 512)"/><path fill="url(#h)" d="M-200.5-346.5c-94 0-215.5 62.5-215.5 210.5 0 262 341.5 515.5 417.5 515.5S418 112 418-134c0-137-101-212-218.75-212C58-346 31.5-247 .25-247-37-247-49.5-346.5-200.5-346.5z" transform="translate(512 512)"/><path fill="url(#i)" mask="url(#j)" d="M-200.5-346.5c-94 0-215.5 62.5-215.5 210.5 0 262 341.5 515.5 417.5 515.5S418 112 418-134c0-137-101-212-218.75-212C58-346 31.5-247 .25-247-37-247-49.5-346.5-200.5-346.5z" transform="translate(512 512)"/><path fill="url(#k)" mask="url(#l)" d="M-200.5-346.5c-94 0-215.5 62.5-215.5 210.5 0 262 341.5 515.5 417.5 515.5S418 112 418-134c0-137-101-212-218.75-212C58-346 31.5-247 .25-247-37-247-49.5-346.5-200.5-346.5z" transform="translate(512 512)"/><path fill="url(#m)" mask="url(#n)" d="M-200.5-346.5c-94 0-215.5 62.5-215.5 210.5 0 262 341.5 515.5 417.5 515.5S418 112 418-134c0-137-101-212-218.75-212C58-346 31.5-247 .25-247-37-247-49.5-346.5-200.5-346.5z" transform="translate(512 512)"/><path fill="url(#o)" d="M-200.5-346.5c-94 0-215.5 62.5-215.5 210.5 0 262 341.5 515.5 417.5 515.5S418 112 418-134c0-137-101-212-218.75-212C58-346 31.5-247 .25-247-37-247-49.5-346.5-200.5-346.5z" transform="translate(512 512)"/><path fill="url(#p)" mask="url(#q)" fill-opacity=".41" d="M-200.5-346.5c-94 0-215.5 62.5-215.5 210.5 0 262 341.5 515.5 417.5 515.5S418 112 418-134c0-137-101-212-218.75-212C58-346 31.5-247 .25-247-37-247-49.5-346.5-200.5-346.5z" transform="translate(512 512)"/></g></svg>