<svg xmlns="http://www.w3.org/2000/svg" width="1024" height="1024" style="width:100%;height:100%;transform:translate3d(0,0,0)"><defs><radialGradient id="g" spreadMethod="pad" gradientUnits="userSpaceOnUse"><stop/><stop/><stop/><stop/><stop/><stop/><stop/><stop/><stop/><stop/><stop/></radialGradient><radialGradient id="l" spreadMethod="pad" gradientUnits="userSpaceOnUse" cx="2.25" cy="23.5" r="101.001" fx="2.25" fy="23.5"><stop offset="0%" stop-color="#4479FF"/><stop offset="50%" stop-color="#3E6CFF"/><stop offset="100%" stop-color="#395FFF"/></radialGradient><radialGradient id="d" spreadMethod="pad" gradientUnits="userSpaceOnUse" cx="248" cy="-145" r="619.233" fx="248" fy="-145"><stop offset="0%" stop-color="#FFE602"/><stop offset="19%" stop-color="#FFE602"/><stop offset="37%" stop-color="#FFE602"/><stop offset="69%" stop-color="#FDCF22"/><stop offset="100%" stop-color="#FCB841"/></radialGradient><radialGradient id="k" spreadMethod="pad" gradientUnits="userSpaceOnUse" cx="2.25" cy="23.5" r="101.001" fx="2.25" fy="23.5"><stop offset="0%" stop-color="#4479FF"/><stop offset="50%" stop-color="#3E6CFF"/><stop offset="100%" stop-color="#395FFF"/></radialGradient><radialGradient id="a" spreadMethod="pad" gradientUnits="userSpaceOnUse" cx="248" cy="-145" r="619.233" fx="248" fy="-145"><stop stop-color="#FFF" offset="0%"/><stop stop-color="#FFF" offset="50%" stop-opacity=".5"/><stop stop-color="#FFF" offset="100%" stop-opacity="0"/></radialGradient><radialGradient id="f" spreadMethod="pad" gradientUnits="userSpaceOnUse"><stop/><stop/><stop/><stop/><stop/><stop/><stop/><stop/><stop/><stop/><stop/></radialGradient><radialGradient id="c" spreadMethod="pad" gradientUnits="userSpaceOnUse" cx="20" cy="-64" r="563.919" fx="-85.075" fy="-42.868"><stop offset="0%" stop-color="#FFC257"/><stop offset="9%" stop-color="#FDBD4C"/><stop offset="19%" stop-color="#FCB841"/><stop offset="32%" stop-color="#EAA736"/><stop offset="45%" stop-color="#D7962A"/><stop offset="61%" stop-color="#DF9437"/><stop offset="76%" stop-color="#E69244"/><stop offset="82%" stop-color="#EB7E62"/><stop offset="89%" stop-color="#EF6B80"/><stop offset="91%" stop-color="#F478A8"/><stop offset="93%" stop-color="#F884CF"/></radialGradient><radialGradient id="h" spreadMethod="pad" gradientUnits="userSpaceOnUse" cx="-126.743" cy="-46.797" r="109.689" fx="-126.743" fy="-46.797"><stop offset="0%" stop-color="#4E2948"/><stop offset="18%" stop-color="#4B2C38"/><stop offset="37%" stop-color="#482E28"/><stop offset="42%" stop-color="#4C3539"/><stop offset="56%" stop-color="#503B4A"/><stop offset="63%" stop-color="#563F4F"/><stop offset="71%" stop-color="#5C4355"/><stop offset="78%" stop-color="#563F4F"/><stop offset="84%" stop-color="#503B4A"/><stop offset="92%" stop-color="#4C3539"/><stop offset="100%" stop-color="#482E28"/></radialGradient><radialGradient id="i" spreadMethod="pad" gradientUnits="userSpaceOnUse" cx="-128.634" cy="-36.619" r="126.338" fx="-128.634" fy="-36.619"><stop offset="0%" stop-color="#4E2948"/><stop offset="18%" stop-color="#4B2C38"/><stop offset="37%" stop-color="#482E28"/><stop offset="42%" stop-color="#4C3539"/><stop offset="56%" stop-color="#503B4A"/><stop offset="63%" stop-color="#563F4F"/><stop offset="71%" stop-color="#5C4355"/><stop offset="78%" stop-color="#563F4F"/><stop offset="84%" stop-color="#503B4A"/><stop offset="92%" stop-color="#4C3539"/><stop offset="100%" stop-color="#482E28"/></radialGradient><radialGradient id="j" spreadMethod="pad" gradientUnits="userSpaceOnUse" cx="-156.409" cy="64.211" r="127.239" fx="-156.409" fy="64.211"><stop offset="0%" stop-color="#482E28"/><stop offset="28%" stop-color="#4E2B41"/><stop offset="57%" stop-color="#542859"/><stop offset="64%" stop-color="#533054"/><stop offset="72%" stop-color="#533950"/><stop offset="80%" stop-color="#53383F"/><stop offset="87%" stop-color="#52372E"/><stop offset="91%" stop-color="#50303B"/><stop offset="100%" stop-color="#4E2948"/></radialGradient><clipPath id="b"><path d="M0 0h1024v1024H0z"/></clipPath><mask id="e"><path fill="url(#a)" d="M21.995-427.272c-327.973-16.462-445.399 225.566-464.734 368.158C-463 90.31-421.198 445.371-30.19 459.804c377.359 13.929 452.227-228.691 470.929-416.88C461-160.951 349.968-410.81 21.995-427.272z"/></mask></defs><g clip-path="url(#b)"><g style="display:block"><path fill="url(#c)" d="M21.995-427.272c-327.973-16.462-445.399 225.566-464.734 368.158C-463 90.31-421.198 445.371-30.19 459.804c377.359 13.929 452.227-228.691 470.929-416.88C461-160.951 349.968-410.81 21.995-427.272z" transform="translate(513 495)"/><path fill="url(#d)" mask="url(#e)" d="M21.995-427.272c-327.973-16.462-445.399 225.566-464.734 368.158C-463 90.31-421.198 445.371-30.19 459.804c377.359 13.929 452.227-228.691 470.929-416.88C461-160.951 349.968-410.81 21.995-427.272z" transform="translate(513 495)"/></g><g style="display:block"><path fill="#FFF" d="M334.75 331.25c74.006 0 134 59.994 134 134s-59.994 134-134 134-134-59.994-134-134 59.994-134 134-134z"/><path fill="#3F2831" d="M352.938 369.188c52.916 0 95.812 42.896 95.812 95.812s-42.896 95.812-95.812 95.812-95.813-42.896-95.813-95.812 42.897-95.812 95.813-95.812z"/></g><g style="display:block"><path fill="#FFF" d="M689.25 329.5c74.697 0 135.25 60.553 135.25 135.25S763.947 600 689.25 600 554 539.447 554 464.75 614.553 329.5 689.25 329.5z"/><path fill="#3F2831" d="M670.938 371.188c52.087 0 94.312 42.225 94.312 94.312 0 52.087-42.225 94.312-94.312 94.312-52.087 0-94.313-42.225-94.313-94.312 0-52.087 42.226-94.312 94.313-94.312z"/></g><path fill="url(#h)" d="M-140.556-128.624c-31.496 2.889-53.598 18.206-60.764 24.446-5.657 4.926-17.624 13.007-8.199 26.094 8.268 11.481 20.121 4.724 28.029-1.915 8.871-7.447 24.607-15.53 43.375-17.669 20.03-2.283 40.881 5.337 48.929 9.841 8.893 4.977 20.179 6.145 25.536-5.982 5.113-11.574-6.873-19.559-6.873-19.559s-24.244-19.456-70.033-15.256z" transform="rotate(-36.032 658.705 -629.648) scale(1.35395)" style="display:block"/><path fill="url(#i)" d="M-126.313-140.369c-40.007 3.291-60.749 20.981-66.199 25.445-5.45 4.464-20.333 15.936-6.894 28.282 10.19 9.362 19.785 2.452 28.165-4.763 8.658-7.455 22.956-15.692 41.835-17.383 17.944-1.607 36.957 1.623 49.063 8.678 9.077 5.289 19.877 7.34 25.666-4.563 7.668-15.765-12.679-23.726-12.679-23.726s-24.691-14.789-58.957-11.97z" transform="rotate(48.968 -165.615 1084.639) scale(1.34395)" style="display:block"/><path fill="url(#j)" d="M-154.222-43.421c-65.07.25-92.403 49.743-92.403 49.743s-8.013 13.674 2.72 23.128c8.79 7.742 19.413 5.601 27.331-4.616 7.982-10.299 26.872-33.912 63.464-33.46 31.959.395 50.845 20.061 57.091 28.204 7.339 9.567 15.825 21.079 29.491 12.301 15.757-10.121 3.454-26.661 3.454-26.661s-27.821-48.883-91.148-48.639z" transform="translate(773.472 741.378) scale(1.69395)" style="display:block"/><path fill="url(#k)" d="M64.75-41.5v83c0 35.736-29.014 64.75-64.75 64.75-35.736 0-64.75-29.014-64.75-64.75v-83c0-35.736 29.014-64.75 64.75-64.75 35.736 0 64.75 29.014 64.75 64.75z" transform="matrix(1.35574 0 0 1.35574 151.726 697.576)" style="display:block"/><path fill="url(#l)" d="M64.75-48c0 35.736-29.014 64.75-64.75 64.75-35.736 0-64.75-29.014-64.75-64.75 0-35.736 29.014-64.75 64.75-64.75 35.736 0 64.75 29.014 64.75 64.75z" transform="matrix(0 0 0 0 151.726 515.907)" style="display:block"/></g></svg>